<mxfile host="Electron" agent="Mozilla/5.0 (Windows NT 10.0; Win64; x64) AppleWebKit/537.36 (KHTML, like Gecko) draw.io/24.7.17 Chrome/128.0.6613.36 Electron/32.0.1 Safari/537.36" version="24.7.17">
  <diagram name="Trang-1" id="155BIDAbpGJ9XGyKNbIF">
    <mxGraphModel dx="1434" dy="844" grid="1" gridSize="10" guides="1" tooltips="1" connect="1" arrows="1" fold="1" page="1" pageScale="1" pageWidth="850" pageHeight="1100" math="0" shadow="0">
      <root>
        <mxCell id="0" />
        <mxCell id="1" parent="0" />
        <mxCell id="pLCQ0TlSICM7dLisDC0q-1" value="" style="edgeStyle=orthogonalEdgeStyle;rounded=0;orthogonalLoop=1;jettySize=auto;html=1;" edge="1" parent="1" source="H32gvc1iSNo0EtZfk-Gv-1" target="H32gvc1iSNo0EtZfk-Gv-2">
          <mxGeometry relative="1" as="geometry" />
        </mxCell>
        <mxCell id="H32gvc1iSNo0EtZfk-Gv-1" value="Bắt đầu đếm" style="rounded=1;whiteSpace=wrap;html=1;" parent="1" vertex="1">
          <mxGeometry x="335" y="30" width="120" height="60" as="geometry" />
        </mxCell>
        <mxCell id="H32gvc1iSNo0EtZfk-Gv-10" style="edgeStyle=orthogonalEdgeStyle;rounded=0;orthogonalLoop=1;jettySize=auto;html=1;exitX=0.5;exitY=1;exitDx=0;exitDy=0;entryX=0.5;entryY=0;entryDx=0;entryDy=0;" parent="1" source="H32gvc1iSNo0EtZfk-Gv-2" target="H32gvc1iSNo0EtZfk-Gv-3" edge="1">
          <mxGeometry relative="1" as="geometry" />
        </mxCell>
        <mxCell id="H32gvc1iSNo0EtZfk-Gv-2" value="Khai báo một mảng rỗng tên bậc đỉnh" style="rounded=0;whiteSpace=wrap;html=1;" parent="1" vertex="1">
          <mxGeometry x="520" y="30" width="120" height="60" as="geometry" />
        </mxCell>
        <mxCell id="H32gvc1iSNo0EtZfk-Gv-11" style="edgeStyle=orthogonalEdgeStyle;rounded=0;orthogonalLoop=1;jettySize=auto;html=1;exitX=0.5;exitY=1;exitDx=0;exitDy=0;entryX=0.5;entryY=0;entryDx=0;entryDy=0;" parent="1" source="H32gvc1iSNo0EtZfk-Gv-3" target="H32gvc1iSNo0EtZfk-Gv-4" edge="1">
          <mxGeometry relative="1" as="geometry" />
        </mxCell>
        <mxCell id="H32gvc1iSNo0EtZfk-Gv-3" value="Chạy vòng lặp qua tất cả phần tử trong mảng các đỉnh" style="rounded=0;whiteSpace=wrap;html=1;" parent="1" vertex="1">
          <mxGeometry x="520" y="130" width="120" height="60" as="geometry" />
        </mxCell>
        <mxCell id="H32gvc1iSNo0EtZfk-Gv-12" style="edgeStyle=orthogonalEdgeStyle;rounded=0;orthogonalLoop=1;jettySize=auto;html=1;exitX=0.5;exitY=1;exitDx=0;exitDy=0;entryX=0.5;entryY=0;entryDx=0;entryDy=0;" parent="1" source="H32gvc1iSNo0EtZfk-Gv-4" target="H32gvc1iSNo0EtZfk-Gv-5" edge="1">
          <mxGeometry relative="1" as="geometry" />
        </mxCell>
        <mxCell id="H32gvc1iSNo0EtZfk-Gv-4" value="Gắn cho mỗi đỉnh đều bậc 0&lt;br&gt;bacDinh = 0" style="rounded=0;whiteSpace=wrap;html=1;" parent="1" vertex="1">
          <mxGeometry x="520" y="220" width="120" height="60" as="geometry" />
        </mxCell>
        <mxCell id="pLCQ0TlSICM7dLisDC0q-2" value="" style="edgeStyle=orthogonalEdgeStyle;rounded=0;orthogonalLoop=1;jettySize=auto;html=1;" edge="1" parent="1" source="H32gvc1iSNo0EtZfk-Gv-5" target="H32gvc1iSNo0EtZfk-Gv-6">
          <mxGeometry relative="1" as="geometry" />
        </mxCell>
        <mxCell id="H32gvc1iSNo0EtZfk-Gv-5" value="Chạy vòng lặp qua tất cả phần tử trong mảng các cạnh" style="rounded=0;whiteSpace=wrap;html=1;" parent="1" vertex="1">
          <mxGeometry x="520" y="320" width="120" height="60" as="geometry" />
        </mxCell>
        <mxCell id="pLCQ0TlSICM7dLisDC0q-4" value="" style="edgeStyle=orthogonalEdgeStyle;rounded=0;orthogonalLoop=1;jettySize=auto;html=1;" edge="1" parent="1" source="H32gvc1iSNo0EtZfk-Gv-6" target="pLCQ0TlSICM7dLisDC0q-3">
          <mxGeometry relative="1" as="geometry" />
        </mxCell>
        <mxCell id="H32gvc1iSNo0EtZfk-Gv-6" value="Với mỗi cạnh tồn tại ta tăng bậc của 2 đỉnh đó lên 1" style="rounded=0;whiteSpace=wrap;html=1;" parent="1" vertex="1">
          <mxGeometry x="320" y="313" width="150" height="75" as="geometry" />
        </mxCell>
        <mxCell id="H32gvc1iSNo0EtZfk-Gv-7" value="Kết thúc đếm" style="rounded=1;whiteSpace=wrap;html=1;" parent="1" vertex="1">
          <mxGeometry x="325" y="609" width="120" height="60" as="geometry" />
        </mxCell>
        <mxCell id="pLCQ0TlSICM7dLisDC0q-6" style="edgeStyle=orthogonalEdgeStyle;rounded=0;orthogonalLoop=1;jettySize=auto;html=1;exitX=0;exitY=0.5;exitDx=0;exitDy=0;entryX=0.5;entryY=0;entryDx=0;entryDy=0;" edge="1" parent="1" source="pLCQ0TlSICM7dLisDC0q-3" target="pLCQ0TlSICM7dLisDC0q-5">
          <mxGeometry relative="1" as="geometry" />
        </mxCell>
        <mxCell id="pLCQ0TlSICM7dLisDC0q-8" style="edgeStyle=orthogonalEdgeStyle;rounded=0;orthogonalLoop=1;jettySize=auto;html=1;exitX=1;exitY=0.5;exitDx=0;exitDy=0;entryX=0.5;entryY=0;entryDx=0;entryDy=0;" edge="1" parent="1" source="pLCQ0TlSICM7dLisDC0q-3" target="pLCQ0TlSICM7dLisDC0q-7">
          <mxGeometry relative="1" as="geometry" />
        </mxCell>
        <mxCell id="pLCQ0TlSICM7dLisDC0q-3" value="Nếu đầu vào&lt;div&gt;&amp;nbsp;có đỉnh&lt;/div&gt;" style="rhombus;whiteSpace=wrap;html=1;" vertex="1" parent="1">
          <mxGeometry x="345" y="410" width="100" height="100" as="geometry" />
        </mxCell>
        <mxCell id="pLCQ0TlSICM7dLisDC0q-9" style="edgeStyle=orthogonalEdgeStyle;rounded=0;orthogonalLoop=1;jettySize=auto;html=1;exitX=0.5;exitY=1;exitDx=0;exitDy=0;entryX=0;entryY=0.5;entryDx=0;entryDy=0;" edge="1" parent="1" source="pLCQ0TlSICM7dLisDC0q-5" target="H32gvc1iSNo0EtZfk-Gv-7">
          <mxGeometry relative="1" as="geometry" />
        </mxCell>
        <mxCell id="pLCQ0TlSICM7dLisDC0q-5" value="Trả về bậc của đỉnh đó" style="rounded=0;whiteSpace=wrap;html=1;" vertex="1" parent="1">
          <mxGeometry x="245" y="520" width="120" height="60" as="geometry" />
        </mxCell>
        <mxCell id="pLCQ0TlSICM7dLisDC0q-10" style="edgeStyle=orthogonalEdgeStyle;rounded=0;orthogonalLoop=1;jettySize=auto;html=1;exitX=0.5;exitY=1;exitDx=0;exitDy=0;entryX=1;entryY=0.5;entryDx=0;entryDy=0;" edge="1" parent="1" source="pLCQ0TlSICM7dLisDC0q-7" target="H32gvc1iSNo0EtZfk-Gv-7">
          <mxGeometry relative="1" as="geometry" />
        </mxCell>
        <mxCell id="pLCQ0TlSICM7dLisDC0q-7" value="Trả về bậc của toàn bộ đỉnh" style="rounded=0;whiteSpace=wrap;html=1;" vertex="1" parent="1">
          <mxGeometry x="425" y="520" width="120" height="60" as="geometry" />
        </mxCell>
      </root>
    </mxGraphModel>
  </diagram>
</mxfile>
